<svg width="807" height="292" viewBox="0 0 807 292" fill="none" xmlns="http://www.w3.org/2000/svg">
<g filter="url(#filter0_b_0_5422)">
<rect x="6" y="6" width="795" height="280" rx="20" fill="white" fill-opacity="0.44"/>
<path d="M190.156 93.432C188.164 93.432 186.328 93.12 184.648 92.496C182.992 91.848 181.54 90.936 180.292 89.76C179.068 88.584 178.108 87.204 177.412 85.62C176.74 84.036 176.404 82.296 176.404 80.4C176.404 78.504 176.74 76.764 177.412 75.18C178.108 73.596 179.08 72.216 180.328 71.04C181.576 69.864 183.04 68.964 184.72 68.34C186.4 67.692 188.248 67.368 190.264 67.368C192.496 67.368 194.5 67.74 196.276 68.484C198.076 69.228 199.588 70.308 200.812 71.724L197.068 75.18C196.156 74.22 195.16 73.512 194.08 73.056C193 72.576 191.824 72.336 190.552 72.336C189.328 72.336 188.212 72.528 187.204 72.912C186.196 73.296 185.32 73.848 184.576 74.568C183.856 75.288 183.292 76.14 182.884 77.124C182.5 78.108 182.308 79.2 182.308 80.4C182.308 81.576 182.5 82.656 182.884 83.64C183.292 84.624 183.856 85.488 184.576 86.232C185.32 86.952 186.184 87.504 187.168 87.888C188.176 88.272 189.28 88.464 190.48 88.464C191.632 88.464 192.748 88.284 193.828 87.924C194.932 87.54 196 86.904 197.032 86.016L200.344 90.228C198.976 91.26 197.38 92.052 195.556 92.604C193.756 93.156 191.956 93.432 190.156 93.432ZM195.016 89.472V80.004H200.344V90.228L195.016 89.472ZM214.977 93.288C212.769 93.288 210.825 92.856 209.145 91.992C207.489 91.128 206.205 89.952 205.293 88.464C204.381 86.952 203.925 85.236 203.925 83.316C203.925 81.372 204.369 79.656 205.257 78.168C206.169 76.656 207.405 75.48 208.965 74.64C210.525 73.776 212.289 73.344 214.257 73.344C216.153 73.344 217.857 73.752 219.369 74.568C220.905 75.36 222.117 76.512 223.005 78.024C223.893 79.512 224.337 81.3 224.337 83.388C224.337 83.604 224.325 83.856 224.301 84.144C224.277 84.408 224.253 84.66 224.229 84.9H208.497V81.624H221.277L219.117 82.596C219.117 81.588 218.913 80.712 218.505 79.968C218.097 79.224 217.533 78.648 216.813 78.24C216.093 77.808 215.253 77.592 214.293 77.592C213.333 77.592 212.481 77.808 211.737 78.24C211.017 78.648 210.453 79.236 210.045 80.004C209.637 80.748 209.433 81.636 209.433 82.668V83.532C209.433 84.588 209.661 85.524 210.117 86.34C210.597 87.132 211.257 87.744 212.097 88.176C212.961 88.584 213.969 88.788 215.121 88.788C216.153 88.788 217.053 88.632 217.821 88.32C218.613 88.008 219.333 87.54 219.981 86.916L222.969 90.156C222.081 91.164 220.965 91.944 219.621 92.496C218.277 93.024 216.729 93.288 214.977 93.288ZM235.996 93.288C233.716 93.288 231.94 92.712 230.668 91.56C229.396 90.384 228.76 88.644 228.76 86.34V69.348H234.376V86.268C234.376 87.084 234.592 87.72 235.024 88.176C235.456 88.608 236.044 88.824 236.788 88.824C237.676 88.824 238.432 88.584 239.056 88.104L240.568 92.064C239.992 92.472 239.296 92.784 238.48 93C237.688 93.192 236.86 93.288 235.996 93.288ZM225.772 78.384V74.064H239.2V78.384H225.772ZM263.132 93.288C261.068 93.288 259.232 92.856 257.624 91.992C256.04 91.128 254.78 89.952 253.844 88.464C252.932 86.952 252.476 85.236 252.476 83.316C252.476 81.372 252.932 79.656 253.844 78.168C254.78 76.656 256.04 75.48 257.624 74.64C259.232 73.776 261.068 73.344 263.132 73.344C265.172 73.344 266.996 73.776 268.604 74.64C270.212 75.48 271.472 76.644 272.384 78.132C273.296 79.62 273.752 81.348 273.752 83.316C273.752 85.236 273.296 86.952 272.384 88.464C271.472 89.952 270.212 91.128 268.604 91.992C266.996 92.856 265.172 93.288 263.132 93.288ZM263.132 88.68C264.068 88.68 264.908 88.464 265.652 88.032C266.396 87.6 266.984 86.988 267.416 86.196C267.848 85.38 268.064 84.42 268.064 83.316C268.064 82.188 267.848 81.228 267.416 80.436C266.984 79.644 266.396 79.032 265.652 78.6C264.908 78.168 264.068 77.952 263.132 77.952C262.196 77.952 261.356 78.168 260.612 78.6C259.868 79.032 259.268 79.644 258.812 80.436C258.38 81.228 258.164 82.188 258.164 83.316C258.164 84.42 258.38 85.38 258.812 86.196C259.268 86.988 259.868 87.6 260.612 88.032C261.356 88.464 262.196 88.68 263.132 88.68ZM285.678 93.288C284.07 93.288 282.63 92.976 281.358 92.352C280.11 91.728 279.138 90.78 278.442 89.508C277.746 88.212 277.398 86.568 277.398 84.576V73.632H283.014V83.748C283.014 85.356 283.35 86.544 284.022 87.312C284.718 88.056 285.69 88.428 286.938 88.428C287.802 88.428 288.57 88.248 289.242 87.888C289.914 87.504 290.442 86.928 290.826 86.16C291.21 85.368 291.402 84.384 291.402 83.208V73.632H297.018V93H291.69V87.672L292.662 89.22C292.014 90.564 291.054 91.584 289.782 92.28C288.534 92.952 287.166 93.288 285.678 93.288ZM302.221 93V73.632H307.585V79.104L306.829 77.52C307.405 76.152 308.329 75.12 309.601 74.424C310.873 73.704 312.421 73.344 314.245 73.344V78.528C314.005 78.504 313.789 78.492 313.597 78.492C313.405 78.468 313.201 78.456 312.985 78.456C311.449 78.456 310.201 78.9 309.241 79.788C308.305 80.652 307.837 82.008 307.837 83.856V93H302.221ZM352.724 73.344C354.26 73.344 355.616 73.656 356.792 74.28C357.992 74.88 358.928 75.816 359.6 77.088C360.296 78.336 360.644 79.944 360.644 81.912V93H355.028V82.776C355.028 81.216 354.704 80.064 354.056 79.32C353.408 78.576 352.496 78.204 351.32 78.204C350.504 78.204 349.772 78.396 349.124 78.78C348.476 79.14 347.972 79.692 347.612 80.436C347.252 81.18 347.072 82.128 347.072 83.28V93H341.456V82.776C341.456 81.216 341.132 80.064 340.484 79.32C339.86 78.576 338.96 78.204 337.784 78.204C336.968 78.204 336.236 78.396 335.588 78.78C334.94 79.14 334.436 79.692 334.076 80.436C333.716 81.18 333.536 82.128 333.536 83.28V93H327.92V73.632H333.284V78.924L332.276 77.376C332.948 76.056 333.896 75.06 335.12 74.388C336.368 73.692 337.784 73.344 339.368 73.344C341.144 73.344 342.692 73.8 344.012 74.712C345.356 75.6 346.244 76.968 346.676 78.816L344.696 78.276C345.344 76.764 346.376 75.564 347.792 74.676C349.232 73.788 350.876 73.344 352.724 73.344ZM375.035 93.288C372.971 93.288 371.135 92.856 369.527 91.992C367.943 91.128 366.683 89.952 365.747 88.464C364.835 86.952 364.379 85.236 364.379 83.316C364.379 81.372 364.835 79.656 365.747 78.168C366.683 76.656 367.943 75.48 369.527 74.64C371.135 73.776 372.971 73.344 375.035 73.344C377.075 73.344 378.899 73.776 380.507 74.64C382.115 75.48 383.375 76.644 384.287 78.132C385.199 79.62 385.655 81.348 385.655 83.316C385.655 85.236 385.199 86.952 384.287 88.464C383.375 89.952 382.115 91.128 380.507 91.992C378.899 92.856 377.075 93.288 375.035 93.288ZM375.035 88.68C375.971 88.68 376.811 88.464 377.555 88.032C378.299 87.6 378.887 86.988 379.319 86.196C379.751 85.38 379.967 84.42 379.967 83.316C379.967 82.188 379.751 81.228 379.319 80.436C378.887 79.644 378.299 79.032 377.555 78.6C376.811 78.168 375.971 77.952 375.035 77.952C374.099 77.952 373.259 78.168 372.515 78.6C371.771 79.032 371.171 79.644 370.715 80.436C370.283 81.228 370.067 82.188 370.067 83.316C370.067 84.42 370.283 85.38 370.715 86.196C371.171 86.988 371.771 87.6 372.515 88.032C373.259 88.464 374.099 88.68 375.035 88.68ZM400.856 93.288C399.152 93.288 397.688 92.928 396.464 92.208C395.24 91.488 394.304 90.396 393.656 88.932C393.008 87.444 392.684 85.572 392.684 83.316C392.684 81.036 393.02 79.164 393.692 77.7C394.388 76.236 395.348 75.144 396.572 74.424C397.796 73.704 399.224 73.344 400.856 73.344C402.68 73.344 404.312 73.752 405.752 74.568C407.216 75.384 408.368 76.536 409.208 78.024C410.072 79.512 410.504 81.276 410.504 83.316C410.504 85.332 410.072 87.084 409.208 88.572C408.368 90.06 407.216 91.224 405.752 92.064C404.312 92.88 402.68 93.288 400.856 93.288ZM389.408 93V66.288H395.024V77.556L394.664 83.28L394.772 89.04V93H389.408ZM399.884 88.68C400.82 88.68 401.648 88.464 402.368 88.032C403.112 87.6 403.7 86.988 404.132 86.196C404.588 85.38 404.816 84.42 404.816 83.316C404.816 82.188 404.588 81.228 404.132 80.436C403.7 79.644 403.112 79.032 402.368 78.6C401.648 78.168 400.82 77.952 399.884 77.952C398.948 77.952 398.108 78.168 397.364 78.6C396.62 79.032 396.032 79.644 395.6 80.436C395.168 81.228 394.952 82.188 394.952 83.316C394.952 84.42 395.168 85.38 395.6 86.196C396.032 86.988 396.62 87.6 397.364 88.032C398.108 88.464 398.948 88.68 399.884 88.68ZM414.264 93V73.632H419.88V93H414.264ZM417.072 70.932C416.04 70.932 415.2 70.632 414.552 70.032C413.904 69.432 413.58 68.688 413.58 67.8C413.58 66.912 413.904 66.168 414.552 65.568C415.2 64.968 416.04 64.668 417.072 64.668C418.104 64.668 418.944 64.956 419.592 65.532C420.24 66.084 420.564 66.804 420.564 67.692C420.564 68.628 420.24 69.408 419.592 70.032C418.968 70.632 418.128 70.932 417.072 70.932ZM425.092 93V66.288H430.708V93H425.092ZM445.532 93.288C443.324 93.288 441.38 92.856 439.7 91.992C438.044 91.128 436.76 89.952 435.848 88.464C434.936 86.952 434.48 85.236 434.48 83.316C434.48 81.372 434.924 79.656 435.812 78.168C436.724 76.656 437.96 75.48 439.52 74.64C441.08 73.776 442.844 73.344 444.812 73.344C446.708 73.344 448.412 73.752 449.924 74.568C451.46 75.36 452.672 76.512 453.56 78.024C454.448 79.512 454.892 81.3 454.892 83.388C454.892 83.604 454.88 83.856 454.856 84.144C454.832 84.408 454.808 84.66 454.784 84.9H439.052V81.624H451.832L449.672 82.596C449.672 81.588 449.468 80.712 449.06 79.968C448.652 79.224 448.088 78.648 447.368 78.24C446.648 77.808 445.808 77.592 444.848 77.592C443.888 77.592 443.036 77.808 442.292 78.24C441.572 78.648 441.008 79.236 440.6 80.004C440.192 80.748 439.988 81.636 439.988 82.668V83.532C439.988 84.588 440.216 85.524 440.672 86.34C441.152 87.132 441.812 87.744 442.652 88.176C443.516 88.584 444.524 88.788 445.676 88.788C446.708 88.788 447.608 88.632 448.376 88.32C449.168 88.008 449.888 87.54 450.536 86.916L453.524 90.156C452.636 91.164 451.52 91.944 450.176 92.496C448.832 93.024 447.284 93.288 445.532 93.288ZM480.706 93V89.22L480.346 88.392V81.624C480.346 80.424 479.974 79.488 479.23 78.816C478.51 78.144 477.394 77.808 475.882 77.808C474.85 77.808 473.83 77.976 472.822 78.312C471.838 78.624 470.998 79.056 470.302 79.608L468.286 75.684C469.342 74.94 470.614 74.364 472.102 73.956C473.59 73.548 475.102 73.344 476.638 73.344C479.59 73.344 481.882 74.04 483.514 75.432C485.146 76.824 485.962 78.996 485.962 81.948V93H480.706ZM474.802 93.288C473.29 93.288 471.994 93.036 470.914 92.532C469.834 92.004 469.006 91.296 468.43 90.408C467.854 89.52 467.566 88.524 467.566 87.42C467.566 86.268 467.842 85.26 468.394 84.396C468.97 83.532 469.87 82.86 471.094 82.38C472.318 81.876 473.914 81.624 475.882 81.624H481.03V84.9H476.494C475.174 84.9 474.262 85.116 473.758 85.548C473.278 85.98 473.038 86.52 473.038 87.168C473.038 87.888 473.314 88.464 473.866 88.896C474.442 89.304 475.222 89.508 476.206 89.508C477.142 89.508 477.982 89.292 478.726 88.86C479.47 88.404 480.01 87.744 480.346 86.88L481.21 89.472C480.802 90.72 480.058 91.668 478.978 92.316C477.898 92.964 476.506 93.288 474.802 93.288ZM502.493 93.288C500.861 93.288 499.433 92.928 498.209 92.208C496.985 91.488 496.025 90.396 495.329 88.932C494.657 87.444 494.321 85.572 494.321 83.316C494.321 81.036 494.645 79.164 495.293 77.7C495.941 76.236 496.877 75.144 498.101 74.424C499.325 73.704 500.789 73.344 502.493 73.344C504.317 73.344 505.949 73.764 507.389 74.604C508.853 75.42 510.005 76.572 510.845 78.06C511.709 79.548 512.141 81.3 512.141 83.316C512.141 85.356 511.709 87.12 510.845 88.608C510.005 90.096 508.853 91.248 507.389 92.064C505.949 92.88 504.317 93.288 502.493 93.288ZM491.045 99.984V73.632H496.409V77.592L496.301 83.352L496.661 89.076V99.984H491.045ZM501.521 88.68C502.457 88.68 503.285 88.464 504.005 88.032C504.749 87.6 505.337 86.988 505.769 86.196C506.225 85.38 506.453 84.42 506.453 83.316C506.453 82.188 506.225 81.228 505.769 80.436C505.337 79.644 504.749 79.032 504.005 78.6C503.285 78.168 502.457 77.952 501.521 77.952C500.585 77.952 499.745 78.168 499.001 78.6C498.257 79.032 497.669 79.644 497.237 80.436C496.805 81.228 496.589 82.188 496.589 83.316C496.589 84.42 496.805 85.38 497.237 86.196C497.669 86.988 498.257 87.6 499.001 88.032C499.745 88.464 500.585 88.68 501.521 88.68ZM527.349 93.288C525.717 93.288 524.289 92.928 523.065 92.208C521.841 91.488 520.881 90.396 520.185 88.932C519.513 87.444 519.177 85.572 519.177 83.316C519.177 81.036 519.501 79.164 520.149 77.7C520.797 76.236 521.733 75.144 522.957 74.424C524.181 73.704 525.645 73.344 527.349 73.344C529.173 73.344 530.805 73.764 532.245 74.604C533.709 75.42 534.861 76.572 535.701 78.06C536.565 79.548 536.997 81.3 536.997 83.316C536.997 85.356 536.565 87.12 535.701 88.608C534.861 90.096 533.709 91.248 532.245 92.064C530.805 92.88 529.173 93.288 527.349 93.288ZM515.901 99.984V73.632H521.265V77.592L521.157 83.352L521.517 89.076V99.984H515.901ZM526.377 88.68C527.313 88.68 528.141 88.464 528.861 88.032C529.605 87.6 530.193 86.988 530.625 86.196C531.081 85.38 531.309 84.42 531.309 83.316C531.309 82.188 531.081 81.228 530.625 80.436C530.193 79.644 529.605 79.032 528.861 78.6C528.141 78.168 527.313 77.952 526.377 77.952C525.441 77.952 524.601 78.168 523.857 78.6C523.113 79.032 522.525 79.644 522.093 80.436C521.661 81.228 521.445 82.188 521.445 83.316C521.445 84.42 521.661 85.38 522.093 86.196C522.525 86.988 523.113 87.6 523.857 88.032C524.601 88.464 525.441 88.68 526.377 88.68ZM562.723 73.344C564.259 73.344 565.627 73.656 566.827 74.28C568.051 74.88 569.011 75.816 569.707 77.088C570.403 78.336 570.751 79.944 570.751 81.912V93H565.135V82.776C565.135 81.216 564.787 80.064 564.091 79.32C563.419 78.576 562.459 78.204 561.211 78.204C560.323 78.204 559.519 78.396 558.799 78.78C558.103 79.14 557.551 79.704 557.143 80.472C556.759 81.24 556.567 82.224 556.567 83.424V93H550.951V73.632H556.315V78.996L555.307 77.376C556.003 76.08 556.999 75.084 558.295 74.388C559.591 73.692 561.067 73.344 562.723 73.344ZM585.199 93.288C583.135 93.288 581.299 92.856 579.691 91.992C578.107 91.128 576.847 89.952 575.911 88.464C574.999 86.952 574.543 85.236 574.543 83.316C574.543 81.372 574.999 79.656 575.911 78.168C576.847 76.656 578.107 75.48 579.691 74.64C581.299 73.776 583.135 73.344 585.199 73.344C587.239 73.344 589.063 73.776 590.671 74.64C592.279 75.48 593.539 76.644 594.451 78.132C595.363 79.62 595.819 81.348 595.819 83.316C595.819 85.236 595.363 86.952 594.451 88.464C593.539 89.952 592.279 91.128 590.671 91.992C589.063 92.856 587.239 93.288 585.199 93.288ZM585.199 88.68C586.135 88.68 586.975 88.464 587.719 88.032C588.463 87.6 589.051 86.988 589.483 86.196C589.915 85.38 590.131 84.42 590.131 83.316C590.131 82.188 589.915 81.228 589.483 80.436C589.051 79.644 588.463 79.032 587.719 78.6C586.975 78.168 586.135 77.952 585.199 77.952C584.263 77.952 583.423 78.168 582.679 78.6C581.935 79.032 581.335 79.644 580.879 80.436C580.447 81.228 580.231 82.188 580.231 83.316C580.231 84.42 580.447 85.38 580.879 86.196C581.335 86.988 581.935 87.6 582.679 88.032C583.423 88.464 584.263 88.68 585.199 88.68ZM603.473 93L596.489 73.632H601.781L607.577 90.3H605.057L611.105 73.632H615.857L621.725 90.3H619.205L625.181 73.632H630.149L623.129 93H617.693L612.545 78.708H614.201L608.873 93H603.473Z" fill="white"/>
<rect x="205" y="160" width="185" height="77.4419" fill="black"/>
<path d="M246.117 188.122C245.853 188.396 245.698 188.826 245.698 189.382V209.188C245.698 209.743 245.853 210.173 246.117 210.447L246.183 210.506L257.318 199.414V199.155L246.183 188.063L246.117 188.122Z" fill="url(#paint0_linear_0_5422)"/>
<path d="M261.023 203.112L257.318 199.414V199.155L261.03 195.458L261.111 195.509L265.506 197.999C266.763 198.71 266.763 199.874 265.506 200.585L261.111 203.075L261.023 203.112Z" fill="url(#paint1_linear_0_5422)"/>
<path d="M261.111 203.067L257.318 199.288L246.117 210.447C246.536 210.884 247.212 210.936 247.984 210.499L261.111 203.067Z" fill="url(#paint2_linear_0_5422)"/>
<path d="M261.111 195.502L247.984 188.07C247.212 187.64 246.529 187.692 246.117 188.13L257.318 199.288L261.111 195.502Z" fill="url(#paint3_linear_0_5422)"/>
<path d="M282.613 187.632C282.453 187.338 282.233 187.115 281.953 186.962C281.673 186.808 281.347 186.732 280.973 186.732C280.56 186.732 280.193 186.825 279.873 187.012C279.553 187.198 279.303 187.465 279.123 187.812C278.943 188.158 278.853 188.558 278.853 189.012C278.853 189.478 278.943 189.885 279.123 190.232C279.31 190.578 279.567 190.845 279.893 191.032C280.22 191.218 280.6 191.312 281.033 191.312C281.567 191.312 282.003 191.172 282.343 190.892C282.683 190.605 282.907 190.208 283.013 189.702H280.613V188.632H284.393V189.852C284.3 190.338 284.1 190.788 283.793 191.202C283.487 191.615 283.09 191.948 282.603 192.202C282.123 192.448 281.583 192.572 280.983 192.572C280.31 192.572 279.7 192.422 279.153 192.122C278.613 191.815 278.187 191.392 277.873 190.852C277.567 190.312 277.413 189.698 277.413 189.012C277.413 188.325 277.567 187.712 277.873 187.172C278.187 186.625 278.613 186.202 279.153 185.902C279.7 185.595 280.307 185.442 280.973 185.442C281.76 185.442 282.443 185.635 283.023 186.022C283.603 186.402 284.003 186.938 284.223 187.632H282.613ZM290.579 189.622C290.579 189.822 290.566 190.002 290.539 190.162H286.489C286.523 190.562 286.663 190.875 286.909 191.102C287.156 191.328 287.459 191.442 287.819 191.442C288.339 191.442 288.709 191.218 288.929 190.772H290.439C290.279 191.305 289.973 191.745 289.519 192.092C289.066 192.432 288.509 192.602 287.849 192.602C287.316 192.602 286.836 192.485 286.409 192.252C285.989 192.012 285.659 191.675 285.419 191.242C285.186 190.808 285.069 190.308 285.069 189.742C285.069 189.168 285.186 188.665 285.419 188.232C285.653 187.798 285.979 187.465 286.399 187.232C286.819 186.998 287.303 186.882 287.849 186.882C288.376 186.882 288.846 186.995 289.259 187.222C289.679 187.448 290.003 187.772 290.229 188.192C290.463 188.605 290.579 189.082 290.579 189.622ZM289.129 189.222C289.123 188.862 288.993 188.575 288.739 188.362C288.486 188.142 288.176 188.032 287.809 188.032C287.463 188.032 287.169 188.138 286.929 188.352C286.696 188.558 286.553 188.848 286.499 189.222H289.129ZM293.231 188.122V190.802C293.231 190.988 293.274 191.125 293.361 191.212C293.454 191.292 293.608 191.332 293.821 191.332H294.471V192.512H293.591C292.411 192.512 291.821 191.938 291.821 190.792V188.122H291.161V186.972H291.821V185.602H293.231V186.972H294.471V188.122H293.231ZM298.571 186.312C298.324 186.312 298.118 186.235 297.951 186.082C297.791 185.922 297.711 185.725 297.711 185.492C297.711 185.258 297.791 185.065 297.951 184.912C298.118 184.752 298.324 184.672 298.571 184.672C298.818 184.672 299.021 184.752 299.181 184.912C299.348 185.065 299.431 185.258 299.431 185.492C299.431 185.725 299.348 185.922 299.181 186.082C299.021 186.235 298.818 186.312 298.571 186.312ZM299.261 186.972V192.512H297.861V186.972H299.261ZM302.274 188.122V190.802C302.274 190.988 302.317 191.125 302.404 191.212C302.497 191.292 302.651 191.332 302.864 191.332H303.514V192.512H302.634C301.454 192.512 300.864 191.938 300.864 190.792V188.122H300.204V186.972H300.864V185.602H302.274V186.972H303.514V188.122H302.274ZM309.364 192.602C308.831 192.602 308.351 192.485 307.924 192.252C307.497 192.012 307.161 191.675 306.914 191.242C306.674 190.808 306.554 190.308 306.554 189.742C306.554 189.175 306.677 188.675 306.924 188.242C307.177 187.808 307.521 187.475 307.954 187.242C308.387 187.002 308.871 186.882 309.404 186.882C309.937 186.882 310.421 187.002 310.854 187.242C311.287 187.475 311.627 187.808 311.874 188.242C312.127 188.675 312.254 189.175 312.254 189.742C312.254 190.308 312.124 190.808 311.864 191.242C311.611 191.675 311.264 192.012 310.824 192.252C310.391 192.485 309.904 192.602 309.364 192.602ZM309.364 191.382C309.617 191.382 309.854 191.322 310.074 191.202C310.301 191.075 310.481 190.888 310.614 190.642C310.747 190.395 310.814 190.095 310.814 189.742C310.814 189.215 310.674 188.812 310.394 188.532C310.121 188.245 309.784 188.102 309.384 188.102C308.984 188.102 308.647 188.245 308.374 188.532C308.107 188.812 307.974 189.215 307.974 189.742C307.974 190.268 308.104 190.675 308.364 190.962C308.631 191.242 308.964 191.382 309.364 191.382ZM316.351 186.892C317.011 186.892 317.544 187.102 317.951 187.522C318.357 187.935 318.561 188.515 318.561 189.262V192.512H317.161V189.452C317.161 189.012 317.051 188.675 316.831 188.442C316.611 188.202 316.311 188.082 315.931 188.082C315.544 188.082 315.237 188.202 315.011 188.442C314.791 188.675 314.681 189.012 314.681 189.452V192.512H313.281V186.972H314.681V187.662C314.867 187.422 315.104 187.235 315.391 187.102C315.684 186.962 316.004 186.892 316.351 186.892Z" fill="white"/>
<path d="M283.999 203.786C283.999 204.234 283.891 204.654 283.675 205.046C283.467 205.438 283.135 205.754 282.679 205.994C282.231 206.234 281.663 206.354 280.975 206.354H279.571V209.57H277.891V201.194H280.975C281.623 201.194 282.175 201.306 282.631 201.53C283.087 201.754 283.427 202.062 283.651 202.454C283.883 202.846 283.999 203.29 283.999 203.786ZM280.903 204.998C281.367 204.998 281.711 204.894 281.935 204.686C282.159 204.47 282.271 204.17 282.271 203.786C282.271 202.97 281.815 202.562 280.903 202.562H279.571V204.998H280.903ZM286.872 200.69V209.57H285.192V200.69H286.872ZM288.1 206.222C288.1 205.55 288.232 204.954 288.496 204.434C288.768 203.914 289.132 203.514 289.588 203.234C290.052 202.954 290.568 202.814 291.136 202.814C291.632 202.814 292.064 202.914 292.432 203.114C292.808 203.314 293.108 203.566 293.332 203.87V202.922H295.024V209.57H293.332V208.598C293.116 208.91 292.816 209.17 292.432 209.378C292.056 209.578 291.62 209.678 291.124 209.678C290.564 209.678 290.052 209.534 289.588 209.246C289.132 208.958 288.768 208.554 288.496 208.034C288.232 207.506 288.1 206.902 288.1 206.222ZM293.332 206.246C293.332 205.838 293.252 205.49 293.092 205.202C292.932 204.906 292.716 204.682 292.444 204.53C292.172 204.37 291.88 204.29 291.568 204.29C291.256 204.29 290.968 204.366 290.704 204.518C290.44 204.67 290.224 204.894 290.056 205.19C289.896 205.478 289.816 205.822 289.816 206.222C289.816 206.622 289.896 206.974 290.056 207.278C290.224 207.574 290.44 207.802 290.704 207.962C290.976 208.122 291.264 208.202 291.568 208.202C291.88 208.202 292.172 208.126 292.444 207.974C292.716 207.814 292.932 207.59 293.092 207.302C293.252 207.006 293.332 206.654 293.332 206.246ZM303.025 202.922L298.909 212.714H297.121L298.561 209.402L295.897 202.922H297.781L299.497 207.566L301.237 202.922H303.025ZM309.682 209.654C309.098 209.654 308.57 209.554 308.098 209.354C307.634 209.154 307.266 208.866 306.994 208.49C306.722 208.114 306.582 207.67 306.574 207.158H308.374C308.398 207.502 308.518 207.774 308.734 207.974C308.958 208.174 309.262 208.274 309.646 208.274C310.038 208.274 310.346 208.182 310.57 207.998C310.794 207.806 310.906 207.558 310.906 207.254C310.906 207.006 310.83 206.802 310.678 206.642C310.526 206.482 310.334 206.358 310.102 206.27C309.878 206.174 309.566 206.07 309.166 205.958C308.622 205.798 308.178 205.642 307.834 205.49C307.498 205.33 307.206 205.094 306.958 204.782C306.718 204.462 306.598 204.038 306.598 203.51C306.598 203.014 306.722 202.582 306.97 202.214C307.218 201.846 307.566 201.566 308.014 201.374C308.462 201.174 308.974 201.074 309.55 201.074C310.414 201.074 311.114 201.286 311.65 201.71C312.194 202.126 312.494 202.71 312.55 203.462H310.702C310.686 203.174 310.562 202.938 310.33 202.754C310.106 202.562 309.806 202.466 309.43 202.466C309.102 202.466 308.838 202.55 308.638 202.718C308.446 202.886 308.35 203.13 308.35 203.45C308.35 203.674 308.422 203.862 308.566 204.014C308.718 204.158 308.902 204.278 309.118 204.374C309.342 204.462 309.654 204.566 310.054 204.686C310.598 204.846 311.042 205.006 311.386 205.166C311.73 205.326 312.026 205.566 312.274 205.886C312.522 206.206 312.646 206.626 312.646 207.146C312.646 207.594 312.53 208.01 312.298 208.394C312.066 208.778 311.726 209.086 311.278 209.318C310.83 209.542 310.298 209.654 309.682 209.654ZM316.058 204.302V207.518C316.058 207.742 316.11 207.906 316.214 208.01C316.326 208.106 316.51 208.154 316.766 208.154H317.546V209.57H316.49C315.074 209.57 314.366 208.882 314.366 207.506V204.302H313.574V202.922H314.366V201.278H316.058V202.922H317.546V204.302H316.058ZM321.707 209.678C321.067 209.678 320.491 209.538 319.979 209.258C319.467 208.97 319.063 208.566 318.767 208.046C318.479 207.526 318.335 206.926 318.335 206.246C318.335 205.566 318.483 204.966 318.779 204.446C319.083 203.926 319.495 203.526 320.015 203.246C320.535 202.958 321.115 202.814 321.755 202.814C322.395 202.814 322.975 202.958 323.495 203.246C324.015 203.526 324.423 203.926 324.719 204.446C325.023 204.966 325.175 205.566 325.175 206.246C325.175 206.926 325.019 207.526 324.707 208.046C324.403 208.566 323.987 208.97 323.459 209.258C322.939 209.538 322.355 209.678 321.707 209.678ZM321.707 208.214C322.011 208.214 322.295 208.142 322.559 207.998C322.831 207.846 323.047 207.622 323.207 207.326C323.367 207.03 323.447 206.67 323.447 206.246C323.447 205.614 323.279 205.13 322.943 204.794C322.615 204.45 322.211 204.278 321.731 204.278C321.251 204.278 320.847 204.45 320.519 204.794C320.199 205.13 320.039 205.614 320.039 206.246C320.039 206.878 320.195 207.366 320.507 207.71C320.827 208.046 321.227 208.214 321.707 208.214ZM328.087 203.954C328.303 203.602 328.583 203.326 328.927 203.126C329.279 202.926 329.679 202.826 330.127 202.826V204.59H329.683C329.155 204.59 328.755 204.714 328.483 204.962C328.219 205.21 328.087 205.642 328.087 206.258V209.57H326.407V202.922H328.087V203.954ZM337.439 206.102C337.439 206.342 337.423 206.558 337.391 206.75H332.531C332.571 207.23 332.739 207.606 333.035 207.878C333.331 208.15 333.695 208.286 334.127 208.286C334.751 208.286 335.195 208.018 335.459 207.482H337.271C337.079 208.122 336.711 208.65 336.167 209.066C335.623 209.474 334.955 209.678 334.163 209.678C333.523 209.678 332.947 209.538 332.435 209.258C331.931 208.97 331.535 208.566 331.247 208.046C330.967 207.526 330.827 206.926 330.827 206.246C330.827 205.558 330.967 204.954 331.247 204.434C331.527 203.914 331.919 203.514 332.423 203.234C332.927 202.954 333.507 202.814 334.163 202.814C334.795 202.814 335.359 202.95 335.855 203.222C336.359 203.494 336.747 203.882 337.019 204.386C337.299 204.882 337.439 205.454 337.439 206.102ZM335.699 205.622C335.691 205.19 335.535 204.846 335.231 204.59C334.927 204.326 334.555 204.194 334.115 204.194C333.699 204.194 333.347 204.322 333.059 204.578C332.779 204.826 332.607 205.174 332.543 205.622H335.699Z" fill="white"/>
<rect x="448" y="160" width="183" height="77.5059" fill="black"/>
<path d="M528.903 186.573C528.743 186.28 528.523 186.056 528.243 185.903C527.963 185.75 527.636 185.673 527.263 185.673C526.849 185.673 526.483 185.766 526.163 185.953C525.843 186.14 525.593 186.406 525.413 186.753C525.233 187.1 525.143 187.5 525.143 187.953C525.143 188.42 525.233 188.826 525.413 189.173C525.599 189.52 525.856 189.786 526.183 189.973C526.509 190.16 526.889 190.253 527.323 190.253C527.856 190.253 528.293 190.113 528.633 189.833C528.973 189.546 529.196 189.15 529.303 188.643H526.903V187.573H530.683V188.793C530.589 189.28 530.389 189.73 530.083 190.143C529.776 190.556 529.379 190.89 528.893 191.143C528.413 191.39 527.873 191.513 527.273 191.513C526.599 191.513 525.989 191.363 525.443 191.063C524.903 190.756 524.476 190.333 524.163 189.793C523.856 189.253 523.703 188.64 523.703 187.953C523.703 187.266 523.856 186.653 524.163 186.113C524.476 185.566 524.903 185.143 525.443 184.843C525.989 184.536 526.596 184.383 527.263 184.383C528.049 184.383 528.733 184.576 529.313 184.963C529.893 185.343 530.293 185.88 530.513 186.573H528.903ZM536.868 188.563C536.868 188.763 536.855 188.943 536.828 189.103H532.778C532.812 189.503 532.952 189.816 533.198 190.043C533.445 190.27 533.748 190.383 534.108 190.383C534.628 190.383 534.998 190.16 535.218 189.713H536.728C536.568 190.246 536.262 190.686 535.808 191.033C535.355 191.373 534.798 191.543 534.138 191.543C533.605 191.543 533.125 191.426 532.698 191.193C532.278 190.953 531.948 190.616 531.708 190.183C531.475 189.75 531.358 189.25 531.358 188.683C531.358 188.11 531.475 187.606 531.708 187.173C531.942 186.74 532.268 186.406 532.688 186.173C533.108 185.94 533.592 185.823 534.138 185.823C534.665 185.823 535.135 185.936 535.548 186.163C535.968 186.39 536.292 186.713 536.518 187.133C536.752 187.546 536.868 188.023 536.868 188.563ZM535.418 188.163C535.412 187.803 535.282 187.516 535.028 187.303C534.775 187.083 534.465 186.973 534.098 186.973C533.752 186.973 533.458 187.08 533.218 187.293C532.985 187.5 532.842 187.79 532.788 188.163H535.418ZM539.52 187.063V189.743C539.52 189.93 539.564 190.066 539.65 190.153C539.744 190.233 539.897 190.273 540.11 190.273H540.76V191.453H539.88C538.7 191.453 538.11 190.88 538.11 189.733V187.063H537.45V185.913H538.11V184.543H539.52V185.913H540.76V187.063H539.52ZM544.86 185.253C544.613 185.253 544.407 185.176 544.24 185.023C544.08 184.863 544 184.666 544 184.433C544 184.2 544.08 184.006 544.24 183.853C544.407 183.693 544.613 183.613 544.86 183.613C545.107 183.613 545.31 183.693 545.47 183.853C545.637 184.006 545.72 184.2 545.72 184.433C545.72 184.666 545.637 184.863 545.47 185.023C545.31 185.176 545.107 185.253 544.86 185.253ZM545.55 185.913V191.453H544.15V185.913H545.55ZM548.563 187.063V189.743C548.563 189.93 548.606 190.066 548.693 190.153C548.786 190.233 548.94 190.273 549.153 190.273H549.803V191.453H548.923C547.743 191.453 547.153 190.88 547.153 189.733V187.063H546.493V185.913H547.153V184.543H548.563V185.913H549.803V187.063H548.563ZM555.653 191.543C555.12 191.543 554.64 191.426 554.213 191.193C553.786 190.953 553.45 190.616 553.203 190.183C552.963 189.75 552.843 189.25 552.843 188.683C552.843 188.116 552.966 187.616 553.213 187.183C553.466 186.75 553.81 186.416 554.243 186.183C554.676 185.943 555.16 185.823 555.693 185.823C556.226 185.823 556.71 185.943 557.143 186.183C557.576 186.416 557.916 186.75 558.163 187.183C558.416 187.616 558.543 188.116 558.543 188.683C558.543 189.25 558.413 189.75 558.153 190.183C557.9 190.616 557.553 190.953 557.113 191.193C556.68 191.426 556.193 191.543 555.653 191.543ZM555.653 190.323C555.906 190.323 556.143 190.263 556.363 190.143C556.59 190.016 556.77 189.83 556.903 189.583C557.036 189.336 557.103 189.036 557.103 188.683C557.103 188.156 556.963 187.753 556.683 187.473C556.41 187.186 556.073 187.043 555.673 187.043C555.273 187.043 554.936 187.186 554.663 187.473C554.396 187.753 554.263 188.156 554.263 188.683C554.263 189.21 554.393 189.616 554.653 189.903C554.92 190.183 555.253 190.323 555.653 190.323ZM562.64 185.833C563.3 185.833 563.833 186.043 564.24 186.463C564.647 186.876 564.85 187.456 564.85 188.203V191.453H563.45V188.393C563.45 187.953 563.34 187.616 563.12 187.383C562.9 187.143 562.6 187.023 562.22 187.023C561.833 187.023 561.527 187.143 561.3 187.383C561.08 187.616 560.97 187.953 560.97 188.393V191.453H559.57V185.913H560.97V186.603C561.157 186.363 561.393 186.176 561.68 186.043C561.973 185.903 562.293 185.833 562.64 185.833Z" fill="white"/>
<path d="M529.317 206.928H525.981L525.429 208.524H523.665L526.677 200.136H528.633L531.645 208.524H529.869L529.317 206.928ZM528.861 205.584L527.649 202.08L526.437 205.584H528.861ZM534.45 202.836C534.666 202.532 534.962 202.28 535.338 202.08C535.722 201.872 536.158 201.768 536.646 201.768C537.214 201.768 537.726 201.908 538.182 202.188C538.646 202.468 539.01 202.868 539.274 203.388C539.546 203.9 539.682 204.496 539.682 205.176C539.682 205.856 539.546 206.46 539.274 206.988C539.01 207.508 538.646 207.912 538.182 208.2C537.726 208.488 537.214 208.632 536.646 208.632C536.158 208.632 535.726 208.532 535.35 208.332C534.982 208.132 534.682 207.88 534.45 207.576V211.692H532.77V201.876H534.45V202.836ZM537.966 205.176C537.966 204.776 537.882 204.432 537.714 204.144C537.554 203.848 537.338 203.624 537.066 203.472C536.802 203.32 536.514 203.244 536.202 203.244C535.898 203.244 535.61 203.324 535.338 203.484C535.074 203.636 534.858 203.86 534.69 204.156C534.53 204.452 534.45 204.8 534.45 205.2C534.45 205.6 534.53 205.948 534.69 206.244C534.858 206.54 535.074 206.768 535.338 206.928C535.61 207.08 535.898 207.156 536.202 207.156C536.514 207.156 536.802 207.076 537.066 206.916C537.338 206.756 537.554 206.528 537.714 206.232C537.882 205.936 537.966 205.584 537.966 205.176ZM542.583 202.836C542.799 202.532 543.095 202.28 543.471 202.08C543.855 201.872 544.291 201.768 544.779 201.768C545.347 201.768 545.859 201.908 546.315 202.188C546.779 202.468 547.143 202.868 547.407 203.388C547.679 203.9 547.815 204.496 547.815 205.176C547.815 205.856 547.679 206.46 547.407 206.988C547.143 207.508 546.779 207.912 546.315 208.2C545.859 208.488 545.347 208.632 544.779 208.632C544.291 208.632 543.859 208.532 543.483 208.332C543.115 208.132 542.815 207.88 542.583 207.576V211.692H540.903V201.876H542.583V202.836ZM546.099 205.176C546.099 204.776 546.015 204.432 545.847 204.144C545.687 203.848 545.471 203.624 545.199 203.472C544.935 203.32 544.647 203.244 544.335 203.244C544.031 203.244 543.743 203.324 543.471 203.484C543.207 203.636 542.991 203.86 542.823 204.156C542.663 204.452 542.583 204.8 542.583 205.2C542.583 205.6 542.663 205.948 542.823 206.244C542.991 206.54 543.207 206.768 543.471 206.928C543.743 207.08 544.031 207.156 544.335 207.156C544.647 207.156 544.935 207.076 545.199 206.916C545.471 206.756 545.687 206.528 545.847 206.232C546.015 205.936 546.099 205.584 546.099 205.176ZM554.787 208.608C554.203 208.608 553.675 208.508 553.203 208.308C552.739 208.108 552.371 207.82 552.099 207.444C551.827 207.068 551.687 206.624 551.679 206.112H553.479C553.503 206.456 553.623 206.728 553.839 206.928C554.063 207.128 554.367 207.228 554.751 207.228C555.143 207.228 555.451 207.136 555.675 206.952C555.899 206.76 556.011 206.512 556.011 206.208C556.011 205.96 555.935 205.756 555.783 205.596C555.631 205.436 555.439 205.312 555.207 205.224C554.983 205.128 554.671 205.024 554.271 204.912C553.727 204.752 553.283 204.596 552.939 204.444C552.603 204.284 552.311 204.048 552.063 203.736C551.823 203.416 551.703 202.992 551.703 202.464C551.703 201.968 551.827 201.536 552.075 201.168C552.323 200.8 552.671 200.52 553.119 200.328C553.567 200.128 554.079 200.028 554.655 200.028C555.519 200.028 556.219 200.24 556.755 200.664C557.299 201.08 557.599 201.664 557.655 202.416H555.807C555.791 202.128 555.667 201.892 555.435 201.708C555.211 201.516 554.911 201.42 554.535 201.42C554.207 201.42 553.943 201.504 553.743 201.672C553.551 201.84 553.455 202.084 553.455 202.404C553.455 202.628 553.527 202.816 553.671 202.968C553.823 203.112 554.007 203.232 554.223 203.328C554.447 203.416 554.759 203.52 555.159 203.64C555.703 203.8 556.147 203.96 556.491 204.12C556.835 204.28 557.131 204.52 557.379 204.84C557.627 205.16 557.751 205.58 557.751 206.1C557.751 206.548 557.635 206.964 557.403 207.348C557.171 207.732 556.831 208.04 556.383 208.272C555.935 208.496 555.403 208.608 554.787 208.608ZM561.164 203.256V206.472C561.164 206.696 561.216 206.86 561.32 206.964C561.432 207.06 561.616 207.108 561.872 207.108H562.652V208.524H561.596C560.18 208.524 559.472 207.836 559.472 206.46V203.256H558.68V201.876H559.472V200.232H561.164V201.876H562.652V203.256H561.164ZM566.812 208.632C566.172 208.632 565.596 208.492 565.084 208.212C564.572 207.924 564.168 207.52 563.872 207C563.584 206.48 563.44 205.88 563.44 205.2C563.44 204.52 563.588 203.92 563.884 203.4C564.188 202.88 564.6 202.48 565.12 202.2C565.64 201.912 566.22 201.768 566.86 201.768C567.5 201.768 568.08 201.912 568.6 202.2C569.12 202.48 569.528 202.88 569.824 203.4C570.128 203.92 570.28 204.52 570.28 205.2C570.28 205.88 570.124 206.48 569.812 207C569.508 207.52 569.092 207.924 568.564 208.212C568.044 208.492 567.46 208.632 566.812 208.632ZM566.812 207.168C567.116 207.168 567.4 207.096 567.664 206.952C567.936 206.8 568.152 206.576 568.312 206.28C568.472 205.984 568.552 205.624 568.552 205.2C568.552 204.568 568.384 204.084 568.048 203.748C567.72 203.404 567.316 203.232 566.836 203.232C566.356 203.232 565.952 203.404 565.624 203.748C565.304 204.084 565.144 204.568 565.144 205.2C565.144 205.832 565.3 206.32 565.612 206.664C565.932 207 566.332 207.168 566.812 207.168ZM573.193 202.908C573.409 202.556 573.689 202.28 574.033 202.08C574.385 201.88 574.785 201.78 575.233 201.78V203.544H574.789C574.261 203.544 573.861 203.668 573.589 203.916C573.325 204.164 573.193 204.596 573.193 205.212V208.524H571.513V201.876H573.193V202.908ZM582.544 205.056C582.544 205.296 582.528 205.512 582.496 205.704H577.636C577.676 206.184 577.844 206.56 578.14 206.832C578.436 207.104 578.8 207.24 579.232 207.24C579.856 207.24 580.3 206.972 580.564 206.436H582.376C582.184 207.076 581.816 207.604 581.272 208.02C580.728 208.428 580.06 208.632 579.268 208.632C578.628 208.632 578.052 208.492 577.54 208.212C577.036 207.924 576.64 207.52 576.352 207C576.072 206.48 575.932 205.88 575.932 205.2C575.932 204.512 576.072 203.908 576.352 203.388C576.632 202.868 577.024 202.468 577.528 202.188C578.032 201.908 578.612 201.768 579.268 201.768C579.9 201.768 580.464 201.904 580.96 202.176C581.464 202.448 581.852 202.836 582.124 203.34C582.404 203.836 582.544 204.408 582.544 205.056ZM580.804 204.576C580.796 204.144 580.64 203.8 580.336 203.544C580.032 203.28 579.66 203.148 579.22 203.148C578.804 203.148 578.452 203.276 578.164 203.532C577.884 203.78 577.712 204.128 577.648 204.576H580.804Z" fill="white"/>
<g clip-path="url(#clip0_0_5422)">
<path d="M510.993 206.095C510.548 207.148 510.022 208.117 509.413 209.009C508.582 210.223 507.901 211.064 507.377 211.531C506.564 212.298 505.693 212.69 504.76 212.713C504.091 212.713 503.284 212.517 502.344 212.121C501.401 211.727 500.534 211.531 499.742 211.531C498.911 211.531 498.02 211.727 497.067 212.121C496.112 212.517 495.343 212.724 494.755 212.744C493.86 212.783 492.969 212.38 492.079 211.531C491.511 211.023 490.801 210.153 489.95 208.919C489.037 207.602 488.286 206.074 487.698 204.333C487.069 202.452 486.753 200.631 486.753 198.867C486.753 196.847 487.179 195.105 488.031 193.645C488.701 192.472 489.593 191.547 490.708 190.868C491.824 190.189 493.029 189.843 494.328 189.821C495.038 189.821 495.969 190.046 497.127 190.489C498.281 190.933 499.022 191.159 499.347 191.159C499.59 191.159 500.414 190.895 501.809 190.37C503.129 189.883 504.243 189.681 505.156 189.761C507.629 189.965 509.487 190.965 510.723 192.766C508.511 194.14 507.417 196.065 507.439 198.534C507.458 200.457 508.139 202.058 509.476 203.328C510.082 203.918 510.759 204.374 511.512 204.698C511.348 205.183 511.176 205.648 510.993 206.095ZM505.321 183.209C505.321 184.716 504.784 186.124 503.714 187.426C502.422 188.975 500.859 189.87 499.165 189.729C499.143 189.548 499.131 189.358 499.131 189.158C499.131 187.711 499.745 186.162 500.836 184.896C501.381 184.254 502.073 183.721 502.913 183.296C503.752 182.877 504.545 182.646 505.29 182.606C505.312 182.807 505.321 183.009 505.321 183.209Z" fill="url(#paint4_linear_0_5422)"/>
</g>
<rect x="3" y="3" width="801" height="286" rx="23" stroke="#EDEDED" stroke-width="6"/>
</g>
<defs>
<filter id="filter0_b_0_5422" x="-29" y="-29" width="865" height="350" filterUnits="userSpaceOnUse" color-interpolation-filters="sRGB">
<feFlood flood-opacity="0" result="BackgroundImageFix"/>
<feGaussianBlur in="BackgroundImageFix" stdDeviation="14.5"/>
<feComposite in2="SourceAlpha" operator="in" result="effect1_backgroundBlur_0_5422"/>
<feBlend mode="normal" in="SourceGraphic" in2="effect1_backgroundBlur_0_5422" result="shape"/>
</filter>
<linearGradient id="paint0_linear_0_5422" x1="256.328" y1="209.394" x2="238.505" y2="204.636" gradientUnits="userSpaceOnUse">
<stop stop-color="#4596D2"/>
<stop offset="0.0066" stop-color="#4597D3"/>
<stop offset="0.2601" stop-color="#3EB9EB"/>
<stop offset="0.5122" stop-color="#49C1ED"/>
<stop offset="0.7604" stop-color="#5AC3E6"/>
<stop offset="1" stop-color="#5EC4E4"/>
</linearGradient>
<linearGradient id="paint1_linear_0_5422" x1="267.143" y1="199.284" x2="245.398" y2="199.284" gradientUnits="userSpaceOnUse">
<stop stop-color="#FFE006"/>
<stop offset="0.4087" stop-color="#FBBC0D"/>
<stop offset="0.7754" stop-color="#F6A316"/>
<stop offset="1" stop-color="#F59A1A"/>
</linearGradient>
<linearGradient id="paint2_linear_0_5422" x1="249.64" y1="202.795" x2="235.4" y2="178.738" gradientUnits="userSpaceOnUse">
<stop stop-color="#E84049"/>
<stop offset="1" stop-color="#C40F62"/>
</linearGradient>
<linearGradient id="paint3_linear_0_5422" x1="233.886" y1="211.469" x2="240.24" y2="200.726" gradientUnits="userSpaceOnUse">
<stop stop-color="#30A071"/>
<stop offset="0.0685" stop-color="#2CA771"/>
<stop offset="0.4762" stop-color="#4DB26F"/>
<stop offset="0.8009" stop-color="#5FB568"/>
<stop offset="1" stop-color="#63B664"/>
</linearGradient>
<linearGradient id="paint4_linear_0_5422" x1="497.331" y1="202.064" x2="497.244" y2="177.322" gradientUnits="userSpaceOnUse">
<stop stop-color="white"/>
<stop offset="1" stop-color="white"/>
</linearGradient>
<clipPath id="clip0_0_5422">
<rect width="24.7588" height="30.1412" fill="white" transform="translate(486.753 182.606)"/>
</clipPath>
</defs>
</svg>
