<svg width="103" height="103" viewBox="0 0 103 103" fill="none" xmlns="http://www.w3.org/2000/svg">
<rect width="103" height="103" rx="51.5" fill="url(#paint0_linear_0_5432)"/>
<path d="M75.9062 35.9688H66.177C66.2852 35.8772 66.3961 35.7885 66.5015 35.6914C67.3438 34.9431 68.0227 34.029 68.4956 33.0063C68.9685 31.9836 69.2253 30.8744 69.25 29.7479C69.2864 28.5156 69.0706 27.2889 68.6158 26.143C68.161 24.9971 67.4767 23.9563 66.6051 23.0844C65.7335 22.2125 64.6929 21.5279 63.5471 21.0728C62.4014 20.6176 61.1747 20.4014 59.9423 20.4375C58.8154 20.4618 57.7056 20.7184 56.6825 21.1913C55.6593 21.6643 54.7447 22.3433 53.9961 23.186C52.9602 24.3866 52.118 25.7415 51.5 27.2019C50.882 25.7415 50.0398 24.3866 49.0039 23.186C48.2553 22.3433 47.3407 21.6643 46.3175 21.1913C45.2944 20.7184 44.1846 20.4618 43.0577 20.4375C41.8253 20.4014 40.5986 20.6176 39.4529 21.0728C38.3071 21.5279 37.2665 22.2125 36.3949 23.0844C35.5233 23.9563 34.839 24.9971 34.3842 26.143C33.9294 27.2889 33.7136 28.5156 33.75 29.7479C33.7747 30.8744 34.0315 31.9836 34.5044 33.0063C34.9773 34.029 35.6562 34.9431 36.4985 35.6914C36.6039 35.7829 36.7148 35.8717 36.823 35.9688H27.0938C25.9169 35.9688 24.7882 36.4363 23.956 37.2685C23.1238 38.1007 22.6562 39.2294 22.6562 40.4062V49.2813C22.6562 50.4582 23.1238 51.5868 23.956 52.419C24.7882 53.2512 25.9169 53.7188 27.0938 53.7188V71.4688C27.0938 72.6457 27.5613 73.7743 28.3935 74.6065C29.2257 75.4387 30.3544 75.9063 31.5312 75.9063H71.4688C72.6456 75.9063 73.7743 75.4387 74.6065 74.6065C75.4387 73.7743 75.9062 72.6457 75.9062 71.4688V53.7188C77.0831 53.7188 78.2118 53.2512 79.044 52.419C79.8762 51.5868 80.3438 50.4582 80.3438 49.2813V40.4062C80.3438 39.2294 79.8762 38.1007 79.044 37.2685C78.2118 36.4363 77.0831 35.9688 75.9062 35.9688ZM57.3242 26.1258C57.6755 25.7379 58.1032 25.4267 58.5805 25.212C59.0578 24.9972 59.5743 24.8834 60.0977 24.8778H60.2336C60.847 24.8816 61.4534 25.0078 62.0174 25.2491C62.5814 25.4903 63.0916 25.8416 63.518 26.2826C63.9445 26.7235 64.2786 27.2451 64.5009 27.8168C64.7232 28.3885 64.8291 28.9988 64.8125 29.612C64.8069 30.1354 64.6931 30.6519 64.4783 31.1292C64.2635 31.6064 63.9524 32.0342 63.5645 32.3855C60.9325 34.7152 56.5643 35.5361 53.8574 35.8245C54.1902 32.8875 55.1055 28.6191 57.3242 26.1258ZM39.5493 26.2257C40.4089 25.3661 41.573 24.8807 42.7886 24.875H42.9245C43.4479 24.8806 43.9644 24.9944 44.4417 25.2092C44.9189 25.424 45.3467 25.7351 45.698 26.123C48.0249 28.7523 48.8458 33.1121 49.1343 35.8079C46.4385 35.5305 42.0786 34.6985 39.4494 32.3716C39.0615 32.0203 38.7503 31.5926 38.5356 31.1153C38.3208 30.638 38.207 30.1215 38.2014 29.5982C38.1842 28.9748 38.2938 28.3544 38.5236 27.7747C38.7534 27.195 39.0986 26.668 39.5382 26.2257H39.5493ZM27.0938 40.4062H49.2812V49.2813H27.0938V40.4062ZM31.5312 53.7188H49.2812V71.4688H31.5312V53.7188ZM71.4688 71.4688H53.7188V53.7188H71.4688V71.4688ZM75.9062 49.2813H53.7188V40.4062H75.9062V49.2813Z" fill="white"/>
<defs>
<linearGradient id="paint0_linear_0_5432" x1="0" y1="0" x2="100.062" y2="105.779" gradientUnits="userSpaceOnUse">
<stop stop-color="#E179CB"/>
<stop offset="1" stop-color="#D7DF4D"/>
</linearGradient>
</defs>
</svg>
