 <svg width="100" height="100" viewBox="0 0 100 100" fill="none" xmlns="http://www.w3.org/2000/svg">
            <path fill-rule="evenodd" clip-rule="evenodd" d="M20.6366 21.9102C24.8163 18.1799 30.1907 16.0648 35.7917 15.9461C41.3927 15.8274 46.852 17.7129 51.1859 21.2629C56.1571 18.0782 62.1446 16.8806 67.9583 17.9082C73.772 18.9357 78.9863 22.1132 82.5646 26.809C86.1429 31.5049 87.8233 37.3752 87.2718 43.2532C86.7203 49.1312 83.9773 54.5865 79.5879 58.5347L56.2141 79.4032C53.8896 81.4779 50.8363 82.5444 47.7256 82.3682C44.6149 82.1921 41.7015 80.7877 39.6261 78.4638L18.7575 55.0939C14.6069 50.4447 12.4731 44.3373 12.8255 38.1149C13.1779 31.8926 15.9877 26.0611 20.6366 21.9102Z" fill="url(#paint0_linear_0_5524)" />
            <defs>
              <linearGradient id="paint0_linear_0_5524" x1="51.4115" y1="16.7595" x2="47.6963" y2="82.3666" gradientUnits="userSpaceOnUse">
                <stop stop-color="#E179CB" />
                <stop offset="1" stop-color="#D7DF4D" />
              </linearGradient>
            </defs>
          </svg>