<svg width="779" height="767" viewBox="0 0 779 767" fill="none" xmlns="http://www.w3.org/2000/svg">
<path d="M244.239 151.302C215.609 178.202 193.255 183.594 158.507 199.121C120.886 215.931 91.4578 205.153 59.1086 232.386C12.9563 271.239 5.17019 319.851 0.711869 384.159C-4.74255 462.835 21.7629 508.417 59.1086 575.435C98.5093 646.14 130.15 684.804 195.782 724.436C272.213 770.589 328.171 767.332 415.08 766.71C498.883 766.111 555.426 774.322 626.303 724.436C695.289 675.88 720.037 621.29 749.93 536.625C777.051 459.81 783.069 409.578 776.643 327.331C772.642 276.121 769.183 245.822 749.93 199.121C720.232 127.086 687.68 90.102 626.303 50.1198C559.123 6.35778 507.993 -9.02862 431.233 5.07304C374.57 15.4824 340.223 30.6724 297.666 73.6828C272.276 99.3418 270.441 126.682 244.239 151.302Z" fill="url(#paint0_linear_0_5354)"/>
<defs>
<linearGradient id="paint0_linear_0_5354" x1="389.5" y1="0" x2="389.5" y2="767" gradientUnits="userSpaceOnUse">
<stop stop-color="#E179CB"/>
<stop offset="1" stop-color="#D7DF4D"/>
</linearGradient>
</defs>
</svg>
