<svg width="124" height="124" viewBox="0 0 124 124" fill="none" xmlns="http://www.w3.org/2000/svg">
<path d="M61.5752 64.1475C57.0572 63.8917 52.6226 65.4411 49.247 68.4549C45.8714 71.4687 43.8312 75.7 43.5754 80.2181C43.3195 84.7361 44.8689 89.1707 47.8827 92.5463C50.8965 95.922 55.1279 97.9621 59.6459 98.218C64.1639 98.4738 68.5985 96.9244 71.9741 93.9106C75.3498 90.8968 77.3899 86.6654 77.6458 82.1474C77.9016 77.6294 76.3522 73.1948 73.3384 69.8192C70.3246 66.4435 66.0933 64.4034 61.5752 64.1475ZM53.3098 80.7693C53.4194 78.833 54.2938 77.0196 55.7405 75.728C57.1872 74.4363 59.0877 73.7723 61.024 73.8819C62.9603 73.9916 64.7737 74.8659 66.0654 76.3126C67.357 77.7593 68.021 79.6599 67.9114 81.5962C67.8017 83.5325 66.9274 85.3459 65.4807 86.6375C64.034 87.9292 62.1334 88.5932 60.1971 88.4835C58.2608 88.3739 56.4474 87.4995 55.1558 86.0528C53.8641 84.6061 53.2001 82.7056 53.3098 80.7693Z" fill="url(#paint0_linear_0_5521)"/>
<path d="M90.5067 29.7311L76.2623 7.16178L16.7958 49.39L13.6438 49.1773L13.6411 49.226L11.1588 49.0854L7.85132 107.492L110.063 113.28L113.37 54.8735L108.688 54.6083L100.915 26.8293L90.5067 29.7311ZM98.4034 54.0259L49.5951 51.262L86.65 40.9287L94.1921 38.9779L98.4034 54.0259ZM80.7034 32.467L42.4529 43.1329L73.5165 21.0737L80.7034 32.467ZM18.6416 89.3968L19.8378 68.2732C21.9325 67.6618 23.8643 66.5906 25.4924 65.1378C27.1205 63.685 28.4039 61.8872 29.2489 59.8754L94.1774 63.5522C94.7896 65.6473 95.8616 67.5793 97.3152 69.2074C98.7688 70.8356 100.567 72.1188 102.58 72.9636L101.384 94.0873C99.2888 94.6994 97.3567 95.7714 95.7286 97.2251C94.1004 98.6787 92.8172 100.477 91.9724 102.49L27.0537 98.8136C26.4409 96.7168 25.3677 94.7833 23.9124 93.1541C22.457 91.525 20.6563 90.2413 18.6416 89.3968Z" fill="url(#paint1_linear_0_5521)"/>
<defs>
<linearGradient id="paint0_linear_0_5521" x1="61.5752" y1="64.1475" x2="59.6459" y2="98.218" gradientUnits="userSpaceOnUse">
<stop stop-color="#E179CB"/>
<stop offset="1" stop-color="#D7DF4D"/>
</linearGradient>
<linearGradient id="paint1_linear_0_5521" x1="64.839" y1="6.51489" x2="58.9569" y2="110.386" gradientUnits="userSpaceOnUse">
<stop stop-color="#E179CB"/>
<stop offset="1" stop-color="#D7DF4D"/>
</linearGradient>
</defs>
</svg>
