<svg width="72" height="55" viewBox="0 0 72 55" fill="none" xmlns="http://www.w3.org/2000/svg">
<path d="M50.1098 13.563C50.2728 10.6833 49.2853 7.85689 47.3644 5.70538C45.4435 3.55388 42.7466 2.25357 39.867 2.0905L13.8088 0.614852C10.9292 0.451783 8.10271 1.43932 5.9512 3.36021C3.7997 5.2811 2.49939 7.97799 2.33632 10.8576L0.614734 41.2589C0.451665 44.1385 1.4392 46.965 3.36009 49.1165C5.28097 51.268 7.97787 52.5683 10.8575 52.7314L36.9157 54.207C39.7954 54.3701 42.6218 53.3826 44.7733 51.4617C46.9248 49.5408 48.2251 46.8439 48.3882 43.9643L50.1098 13.563ZM54.1011 20.0195L53.08 38.0518L64.5062 48.9377C64.9573 49.3677 65.5221 49.6596 66.1338 49.7787C66.7455 49.8978 67.3785 49.8393 67.958 49.6099C68.5375 49.3806 69.0392 48.99 69.4037 48.4845C69.7682 47.979 69.9803 47.3797 70.0149 46.7575L71.9005 13.4593C71.9345 12.8407 71.7916 12.2252 71.4886 11.6848C71.1856 11.1444 70.735 10.7015 70.1894 10.4078C69.6439 10.1141 69.026 9.98182 68.4081 10.0264C67.7901 10.071 67.1977 10.2906 66.7 10.6596L54.1011 20.0195Z" fill="url(#paint0_linear_0_5520)"/>
<defs>
<linearGradient id="paint0_linear_0_5520" x1="37.6955" y1="1.96753" x2="34.7442" y2="54.0841" gradientUnits="userSpaceOnUse">
<stop stop-color="#E179CB"/>
<stop offset="1" stop-color="#D7DF4D"/>
</linearGradient>
</defs>
</svg>
